<svg xmlns="http://www.w3.org/2000/svg" version="1.0" width="166.000000pt" height="256.000000pt" viewBox="0 0 166.000000 256.000000" preserveAspectRatio="xMidYMid meet">

<g transform="translate(0.000000,256.000000) scale(0.100000,-0.100000)" fill="#2b87f2" stroke="none">
<path d="M683 1777 l-553 -672 320 -3 c219 -1 320 -6 320 -13 0 -8 -248 -733 -315 -919 -9 -25 -11 -40 -6 -35 5 6 255 309 556 675 l546 665 -321 3 c-176 1 -320 6 -320 10 0 5 34 107 76 228 165 477 253 734 251 734 -1 0 -251 -303 -554 -673z" fill="#2b87f2"/>
</g>
</svg>