<svg xmlns="http://www.w3.org/2000/svg" version="1.0" width="812.000000pt" height="246.000000pt" viewBox="0 0 812.000000 246.000000" preserveAspectRatio="xMidYMid meet">

<g transform="translate(0.000000,246.000000) scale(0.100000,-0.100000)" fill="#2b87f2" stroke="none">
<path d="M643 1717 l-553 -672 320 -3 c219 -1 320 -6 320 -13 0 -8 -248 -733 -315 -919 -9 -25 -11 -40 -6 -35 5 6 255 309 556 675 l546 665 -321 3 c-176 1 -320 6 -320 10 0 5 34 107 76 228 165 477 253 734 251 734 -1 0 -251 -303 -554 -673z" fill="#2b87f2"/>
<path d="M6696 1949 c-116 -27 -177 -117 -192 -283 l-7 -76 -73 0 -74 0 0 -90 0 -90 75 0 75 0 0 -305 0 -305 105 0 105 0 0 305 0 305 120 0 120 0 0 90 0 90 -120 0 -120 0 0 66 c0 59 3 68 29 95 24 23 38 29 75 29 24 0 56 -4 69 -9 23 -9 25 -6 47 70 12 44 20 82 17 86 -12 11 -123 33 -167 32 -25 -1 -63 -5 -84 -10z" fill="#2b87f2"/>
<path d="M4880 1370 l0 -570 100 0 100 0 0 103 1 102 44 48 c25 27 49 46 54 43 5 -3 58 -71 117 -151 l108 -145 113 0 c62 0 113 2 113 5 0 2 -72 101 -160 219 -88 118 -160 220 -160 226 0 6 57 75 127 153 70 78 136 152 147 165 l19 22 -116 0 -116 0 -138 -159 c-76 -88 -141 -160 -145 -160 -5 -1 -8 150 -8 334 l0 335 -100 0 -100 0 0 -570z" fill="#2b87f2"/>
<path d="M5923 1920 c-35 -21 -63 -66 -63 -102 0 -56 69 -118 130 -118 59 0 112 60 112 127 0 43 -22 76 -65 97 -46 21 -75 20 -114 -4z" fill="#2b87f2"/>
<path d="M2080 1715 l0 -125 -65 0 -65 0 0 -90 0 -90 65 0 65 0 0 -203 c0 -150 4 -216 15 -253 38 -129 189 -192 355 -150 35 9 66 18 68 20 2 3 -7 41 -20 86 -20 72 -25 80 -43 74 -47 -16 -106 -16 -130 0 -36 24 -45 74 -45 259 l0 167 115 0 115 0 0 90 0 90 -115 0 -115 0 0 125 0 125 -100 0 -100 0 0 -125z" fill="#2b87f2"/>
<path d="M3052 1600 c-101 -21 -211 -113 -258 -215 -53 -114 -53 -265 -1 -378 101 -220 391 -296 560 -147 l37 32 0 -46 0 -46 105 0 105 0 0 395 0 395 -105 0 -105 0 0 -46 0 -46 -41 36 c-70 59 -196 87 -297 66z m194 -185 c146 -43 204 -254 102 -371 -83 -94 -226 -109 -314 -32 -66 58 -93 149 -74 245 10 49 20 65 60 104 67 65 134 82 226 54z" fill="#2b87f2"/>
<path d="M4092 1589 c-88 -28 -164 -102 -181 -175 -16 -67 -2 -119 43 -166 44 -45 93 -67 249 -113 130 -38 171 -60 179 -93 14 -54 -45 -93 -139 -93 -83 0 -146 35 -189 107 -10 16 -15 16 -97 -7 -99 -27 -103 -34 -59 -95 87 -119 227 -182 382 -171 98 7 159 29 215 79 62 55 87 106 87 179 0 70 -20 110 -79 155 -38 29 -84 46 -294 108 -70 21 -88 30 -97 51 -15 33 -3 59 38 80 62 32 157 12 210 -45 l29 -31 85 26 c48 14 86 30 86 34 0 19 -63 93 -99 116 -105 70 -255 92 -369 54z" fill="#2b87f2"/>
<path d="M5880 1195 l0 -395 100 0 100 0 0 395 0 395 -100 0 -100 0 0 -395z" fill="#2b87f2"/>
<path d="M7130 1528 c15 -35 94 -205 175 -378 81 -173 147 -324 147 -335 0 -11 -30 -91 -66 -177 -36 -87 -66 -160 -66 -163 0 -3 46 -4 102 -3 l102 3 237 558 237 557 -108 0 -107 0 -109 -264 c-59 -146 -111 -263 -114 -261 -3 2 -57 121 -120 264 l-114 261 -112 0 -113 0 29 -62z" fill="#2b87f2"/>
</g>
</svg>